<!-- This is a more realistic avatar for Sarah L -->
<svg width="50" height="50" viewBox="0 0 50 50" fill="none" xmlns="http://www.w3.org/2000/svg">
<defs>
<linearGradient id="sarah-bg" x1="0%" y1="0%" x2="100%" y2="100%">
<stop offset="0%" style="stop-color:#FFB6C1;stop-opacity:1" />
<stop offset="100%" style="stop-color:#FFA0B4;stop-opacity:1" />
</linearGradient>
</defs>
<circle cx="25" cy="25" r="25" fill="url(#sarah-bg)"/>
<!-- Hair -->
<path d="M10 18C10 10 16 3 25 3C34 3 40 10 40 18C40 13 35 10 25 10C15 10 10 13 10 18Z" fill="#8B4513"/>
<path d="M8 20C8 15 12 12 18 12C20 12 22 13 22 15C22 17 20 18 18 18C15 18 8 18 8 20Z" fill="#8B4513"/>
<path d="M28 15C28 13 30 12 32 12C38 12 42 15 42 20C42 18 35 18 32 18C30 18 28 17 28 15Z" fill="#8B4513"/>
<!-- Face -->
<ellipse cx="25" cy="24" rx="13" ry="15" fill="#FDBCB4"/>
<!-- Eyes -->
<circle cx="21" cy="21" r="1.5" fill="#333"/>
<circle cx="29" cy="21" r="1.5" fill="#333"/>
<circle cx="21.5" cy="20.5" r="0.5" fill="#FFF"/>
<circle cx="29.5" cy="20.5" r="0.5" fill="#FFF"/>
<!-- Eyebrows -->
<path d="M19 18C20 17.5 22 17.5 23 18" stroke="#8B4513" stroke-width="1" fill="none"/>
<path d="M27 18C28 17.5 30 17.5 31 18" stroke="#8B4513" stroke-width="1" fill="none"/>
<!-- Nose -->
<ellipse cx="25" cy="24" rx="1" ry="1.5" fill="#F4A5A5"/>
<!-- Mouth -->
<path d="M23 27C24 28 26 28 27 27" stroke="#D2691E" stroke-width="1.5" fill="none"/>
<!-- Shirt -->
<path d="M12 45C12 38 17 33 25 33C33 33 38 38 38 45H12Z" fill="#FF69B4"/>
</svg>
